# Created by Kenney (www.kenney.nl)

mtllib bottle-potion.mtl

v 3.258819 -5.965926 2
v 3.258819 -5.965926 -2
v 3 -6 2
v 3.5 -5.866025 2
v 3.5 -5.866025 -2
v 3.707107 -5.707107 2
v 3.707107 -5.707107 -2
v 3.866025 -5.5 2
v 3 -6 -2
v 3.965926 -5.258819 -2
v 3.866025 -5.5 -2
v 3.965926 -5.258819 2
v 3 -5 -2
v 3 -5 2
v 4 -5 -2
v 4 -5 2
v 2.258819 -6.965926 2
v 2.258819 -6.965926 -2
v 2 -7 2
v 2.5 -6.866025 2
v 2.5 -6.866025 -2
v 2.707107 -6.707107 2
v 2.707107 -6.707107 -2
v 2.866025 -6.5 2
v 2 -7 -2
v 2.965926 -6.258819 -2
v 2.866025 -6.5 -2
v 2.965926 -6.258819 2
v 2 -6 -2
v 2 -6 2
v -2.5 -6.866025 2
v -2.5 -6.866025 -2
v -2.707107 -6.707107 2
v -2.707107 -6.707107 -2
v -2.866025 -6.5 -2
v -2.965926 -6.258819 -2
v -2.866025 -6.5 2
v -3 -6 2
v -2.965926 -6.258819 2
v -3 -6 -2
v -2 -7 2
v -2 -7 -2
v -2.258819 -6.965926 2
v -2.258819 -6.965926 -2
v -2 -6 -2
v -2 -6 2
v -3.5 -5.866025 2
v -3.5 -5.866025 -2
v -3.707107 -5.707107 2
v -3.707107 -5.707107 -2
v -3.866025 -5.5 -2
v -3.965926 -5.258819 -2
v -3.866025 -5.5 2
v -4 -5 2
v -3.965926 -5.258819 2
v -4 -5 -2
v -3.258819 -5.965926 2
v -3.258819 -5.965926 -2
v -3 -5 -2
v -3 -5 2
v 1 4 -1
v 1 3 -1
v 1 4 1
v 1 3 1
v -1 4 -1
v -1 4 1
v -1 3 1
v -1 3 -1
v 1.933013 4.75 1.5
v 1.853553 4.853553 1.5
v 1.933013 4.75 -1.5
v 1.62941 4.982963 -1.5
v 1.62941 4.982963 1.5
v 1.5 5 -1.5
v 1.75 4.933013 -1.5
v 1.75 4.933013 1.5
v 1.853553 4.853553 -1.5
v 1.5 5 1.5
v 1 4 -1.5
v 1 5 -1.5
v 1 4 1.5
v 1 5 1.5
v 1.982963 4.370591 -1.5
v 1.933013 4.25 -1.5
v 1.982963 4.370591 1.5
v 1.933013 4.25 1.5
v 1.5 4 -1.5
v 1.62941 4.017037 -1.5
v 1.75 4.066988 -1.5
v 1.853553 4.146447 -1.5
v 2 4.5 -1.5
v 1.982963 4.629409 -1.5
v 1.5 4 1.5
v 1.853553 4.146447 1.5
v 1.75 4.066988 1.5
v 2 4.5 1.5
v 1.62941 4.017037 1.5
v 1.982963 4.629409 1.5
v -1 5 -1.5
v -1 4 -1.5
v -1 5 1.5
v -1 4 1.5
v -1.5 4 -1.5
v -1.62941 4.017037 -1.5
v -1.75 4.066987 -1.5
v -1.853553 4.146447 -1.5
v -1.933013 4.25 -1.5
v -1.982963 4.370591 -1.5
v -2 4.5 -1.5
v -1.982963 4.629409 -1.5
v -1.933013 4.75 -1.5
v -1.853553 4.853553 -1.5
v -1.75 4.933013 -1.5
v -1.62941 4.982963 -1.5
v -1.5 5 -1.5
v -1.5 5 1.5
v -1.62941 4.982963 1.5
v -1.75 4.933013 1.5
v -1.853553 4.853553 1.5
v -1.933013 4.75 1.5
v -1.982963 4.629409 1.5
v -2 4.5 1.5
v -1.982963 4.370591 1.5
v -1.933013 4.25 1.5
v -1.853553 4.146447 1.5
v -1.75 4.066987 1.5
v -1.62941 4.017037 1.5
v -1.5 4 1.5
v 1 1 -1
v 1 1 1
v -1 1 1
v -1 1 -1
v 2 0 -2
v 2 -2 -2
v 2 0 2
v 2 -2 2
v -1 0 -2
v -1 0 2
v -1 -2 2
v -1 -2 -2
v 3 -1 -2
v 3 -2 -2
v 3 -1 2
v 3 -2 2
v 2 -1 -2
v 2 -1 2
v -2 -1 -2
v -2 -2 -2
v -2 -1 2
v -2 -2 2
v -3 -1 -2
v -3 -1 2
v -3 -2 2
v -3 -2 -2
v 4 -2 -2
v 4 -2 2
v 3 -2 -3
v 3 -6 -3
v 3 -2 3
v 3 -6 3
v -1 -2 -3
v -1 -2 3
v -1 -6 3
v -1 -6 -3
v -2 -2 -3
v -2 -6 -3
v -2 -2 3
v -2 -6 3
v -3 -2 -3
v -3 -2 3
v -3 -6 3
v -3 -6 -3
v -4 -2 -2
v -4 -2 2
v -1 -3 -3
v -1 -3 3
v -2 -3 -3
v -2 -3 3
v 1 7 -1
v 1 5 -1
v 1 7 1
v 1 5 1
v -1 7 -1
v -1 7 1
v -1 5 1
v -1 5 -1
v 1 6 -1
v 1 6 1
v 0 7 -1
v 0 7 1
v 0 6 1
v 0 6 -1
v 1 1 -1.5
v 1 0 -1.5
v 1 1 1.5
v 1 0 1.5
v -1 1 -1.5
v -1 1 1.5
v -1 0 1.5
v -1 0 -1.5
v -2 0 -2
v -2 0 2

vn 0.2588191 -0.9659259 0
vn 0.1305262 -0.9914449 0
vn 0.5 -0.8660254 0
vn 0.7071068 -0.7071068 0
vn 0.8660254 -0.5 0
vn 0.9659259 -0.2588191 0
vn -1 0 0
vn 0 1 0
vn 0 0 -1
vn 0.9914449 -0.1305262 0
vn 0 0 1
vn -0.5 -0.8660254 0
vn -0.7071068 -0.7071068 0
vn -0.8660254 -0.5 0
vn -0.9659259 -0.2588191 0
vn -0.9914449 -0.1305262 0
vn -0.1305262 -0.9914449 0
vn -0.2588191 -0.9659259 0
vn 1 0 0
vn 0 -1 0
vn 0.8660254 0.5 0
vn 0.7071068 0.7071068 0
vn 0.2588191 0.9659259 0
vn 0.1305262 0.9914449 0
vn 0.5 0.8660254 0
vn 0.2588191 -0.9659258 0
vn 0.1305262 -0.9914449 0
vn 0.9659258 0.2588191 0
vn -0.1305262 0.9914449 0
vn -0.2588191 0.9659259 0
vn -0.5 0.8660254 0
vn -0.7071068 0.7071068 0
vn -0.8660254 0.5 0
vn -0.9659259 0.2588191 0

vt 0 0
vt NaN 0
vt NaN 0
vt NaN 0
vt NaN 0
vt NaN 0
vt NaN 0
vt NaN 0
vt NaN 0
vt 19.68504 19.68504
vt 18.34354 9.495314
vt -19.68504 19.68504
vt -19.68504 -19.68504
vt -9.495314 -18.34354
vt 1.970335E-11 -14.41045
vt 8.153811 -8.153811
vt 14.41045 1.481837E-11
vt NaN 0
vt NaN 0
vt NaN 0
vt NaN 0
vt NaN 0
vt NaN 0
vt NaN 0
vt NaN 0
vt NaN 0
vt NaN 0
vt NaN 0
vt NaN 0
vt NaN 0
vt NaN 0
vt NaN 0
vt -18.34354 9.495314
vt 19.68504 -19.68504
vt 9.495314 -18.34354
vt -4.074963E-12 -14.41045
vt -8.153811 -8.153811
vt -14.41045 3.101519E-12
vt NaN 0
vt NaN 0
vt NaN 0
vt NaN 0
vt NaN 0
vt NaN 0
vt NaN 0
vt 0 NaN
vt 0 NaN
vt 0 NaN
vt 0 NaN
vt 0 NaN
vt 0 NaN
vt 0 NaN
vt 0 NaN
vt 0 NaN
vt 0 NaN
vt NaN 0
vt NaN 0
vt NaN 0
vt -5.866895E-07 19.68504
vt 5.094862 19.01429
vt 1.136868E-13 -19.68504
vt 5.094863 -19.01429
vt 9.84252 -17.04774
vt 13.91943 -13.91942
vt 17.04774 -9.842519
vt 19.01429 -5.094862
vt 19.68504 5.866664E-07
vt 19.01429 5.094864
vt 17.04774 9.84252
vt 13.91942 13.91943
vt 9.842519 17.04774
vt -6.387779E-12 19.68504
vt -5.094863 19.01429
vt 0 NaN
vt 0 NaN
vt 0 NaN
vt 0 NaN
vt 2.285105E-11 -19.68504
vt -5.094863 -19.01429
vt -9.84252 -17.04774
vt -13.91943 -13.91943
vt -17.04774 -9.84252
vt -19.01429 -5.094863
vt -19.68504 2.842171E-14
vt -19.01429 5.094863
vt -17.04774 9.84252
vt -13.91943 13.91943
vt -9.84252 17.04774
vt 0 NaN
vt 0 NaN
vt 0 NaN
vt 0 NaN
vt 0 NaN
vt 0 NaN
vt 0 NaN
vt 0 NaN
vt 0 NaN
vt 0 NaN
vt 0 NaN
vt 0 NaN
vt 0 NaN
vt 0 NaN
vt 0 NaN
vt 0 NaN
vt 0 NaN
vt 0 NaN
vt 0 NaN
vt 0 NaN
vt 0 NaN
vt 0 NaN
vt 0 NaN
vt 0 NaN
vt 0 NaN
vt 0 NaN
vt 0 NaN
vt 0 NaN
vt 0 NaN
vt 0 NaN
vt 0 NaN
vt 0 NaN
vt 0 NaN
vt 0 NaN
vt 0 NaN
vt 0 NaN
vt 0 NaN
vt 0 NaN
vt 0 NaN
vt 0 NaN
vt 0 NaN
vt 0 NaN
vt 0 NaN
vt 0 NaN
vt 0 NaN
vt 0 NaN
vt 0 NaN
vt 0 NaN
vt 0 NaN
vt 0 NaN
vt 0 NaN
vt 0 NaN
vt 0 NaN
vt 0 NaN
vt 0 NaN
vt 0 NaN
vt 0 NaN
vt 0 NaN
vt 0 NaN
vt 0 NaN
vt 0 NaN
vt 0 NaN
vt 0 NaN
vt 0 NaN
vt 0 NaN
vt 0 NaN
vt 0 NaN

usemtl color8

f 3/1/2 2/2/1 1/1/1
f 1/1/1 5/3/3 4/1/3
f 4/1/3 7/4/4 6/1/4
f 7/4/4 8/5/5 6/1/4
f 7/4/4 4/1/3 5/3/3
f 5/3/3 1/1/1 2/2/1
f 2/2/1 3/1/2 9/1/2
f 12/1/6 11/6/5 10/1/6
f 3/1/7 13/7/7 9/1/7
f 13/7/7 3/1/7 14/1/7
f 13/1/8 16/8/8 15/1/8
f 16/8/8 13/1/8 14/1/8
f 13/1/9 2/9/9 9/1/9
f 2/9/9 13/1/9 5/1/9
f 5/1/9 13/1/9 7/1/9
f 7/1/9 13/1/9 11/1/9
f 11/1/9 13/1/9 10/1/9
f 10/1/9 13/1/9 15/1/9
f 16/12/10 10/11/6 15/10/10
f 10/12/6 16/11/10 12/10/6
f 11/6/5 12/1/6 8/5/5
f 8/5/5 7/4/4 11/6/5
f 1/14/11 14/12/11 3/13/11
f 14/12/11 1/14/11 4/15/11
f 14/12/11 4/15/11 6/16/11
f 14/12/11 6/16/11 8/17/11
f 14/12/11 8/17/11 12/11/11
f 14/12/11 12/11/11 16/10/11
f 19/1/2 18/18/1 17/1/1
f 17/1/1 21/19/3 20/1/3
f 20/1/3 23/20/4 22/1/4
f 23/20/4 24/21/5 22/1/4
f 23/20/4 20/1/3 21/19/3
f 21/19/3 17/1/1 18/18/1
f 18/18/1 19/1/2 25/1/2
f 28/1/6 27/22/5 26/1/6
f 19/1/7 29/23/7 25/1/7
f 29/23/7 19/1/7 30/1/7
f 29/1/8 3/24/8 9/1/8
f 3/24/8 29/1/8 30/1/8
f 29/1/9 18/25/9 25/1/9
f 18/25/9 29/1/9 21/1/9
f 21/1/9 29/1/9 23/1/9
f 23/1/9 29/1/9 27/1/9
f 27/1/9 29/1/9 26/1/9
f 26/1/9 29/1/9 9/1/9
f 3/12/10 26/11/6 9/10/10
f 26/12/6 3/11/10 28/10/6
f 27/22/5 28/1/6 24/21/5
f 24/21/5 23/20/4 27/22/5
f 17/14/11 30/12/11 19/13/11
f 30/12/11 17/14/11 20/15/11
f 30/12/11 20/15/11 22/16/11
f 30/12/11 22/16/11 24/17/11
f 30/12/11 24/17/11 28/11/11
f 30/12/11 28/11/11 3/10/11
f 33/1/13 32/26/12 31/1/12
f 32/26/12 33/1/13 34/1/13
f 37/1/14 36/27/15 35/1/14
f 40/1/16 39/28/15 38/1/16
f 43/1/18 42/29/17 41/1/17
f 42/29/17 43/1/18 44/1/18
f 40/1/8 46/30/8 45/1/8
f 46/30/8 40/1/8 38/1/8
f 46/1/19 42/31/19 45/1/19
f 42/31/19 46/1/19 41/1/19
f 44/1/9 45/32/9 42/1/9
f 45/32/9 44/1/9 32/1/9
f 45/32/9 32/1/9 34/1/9
f 45/32/9 34/1/9 35/1/9
f 45/32/9 35/1/9 36/1/9
f 45/32/9 36/1/9 40/1/9
f 31/33/12 44/10/18 43/12/18
f 44/33/18 31/10/12 32/26/12
f 33/33/13 35/10/14 34/12/13
f 35/33/14 33/10/13 37/12/14
f 36/27/15 37/1/14 39/28/15
f 39/28/15 40/1/16 36/27/15
f 46/10/11 43/35/11 41/34/11
f 43/35/11 46/10/11 31/36/11
f 31/36/11 46/10/11 33/37/11
f 33/37/11 46/10/11 37/38/11
f 37/38/11 46/10/11 39/33/11
f 39/33/11 46/10/11 38/12/11
f 49/1/13 48/39/12 47/1/12
f 48/39/12 49/1/13 50/1/13
f 53/1/14 52/40/15 51/1/14
f 56/1/16 55/41/15 54/1/16
f 57/1/18 40/42/17 38/1/17
f 40/42/17 57/1/18 58/1/18
f 56/1/8 60/43/8 59/1/8
f 60/43/8 56/1/8 54/1/8
f 60/1/19 40/44/19 59/1/19
f 40/44/19 60/1/19 38/1/19
f 58/1/9 59/45/9 40/1/9
f 59/45/9 58/1/9 48/1/9
f 59/45/9 48/1/9 50/1/9
f 59/45/9 50/1/9 51/1/9
f 59/45/9 51/1/9 52/1/9
f 59/45/9 52/1/9 56/1/9
f 47/33/12 58/10/18 57/12/18
f 58/33/18 47/10/12 48/39/12
f 49/33/13 51/10/14 50/12/13
f 51/33/14 49/10/13 53/12/14
f 52/40/15 53/1/14 55/41/15
f 55/41/15 56/1/16 52/40/15
f 60/10/11 57/35/11 38/34/11
f 57/35/11 60/10/11 47/36/11
f 47/36/11 60/10/11 49/37/11
f 49/37/11 60/10/11 53/38/11
f 53/38/11 60/10/11 55/33/11
f 55/33/11 60/10/11 54/12/11
f 63/13/19 62/10/19 61/12/19
f 62/13/19 63/10/19 64/12/19
f 65/13/8 63/10/8 61/12/8
f 63/13/8 65/10/8 66/12/8
f 67/1/20 62/1/20 64/46/20
f 62/1/20 67/1/20 68/47/20
f 67/1/7 65/1/7 68/48/7
f 65/1/7 67/1/7 66/49/7
f 65/1/9 62/1/9 68/50/9
f 62/1/9 65/1/9 61/51/9
f 63/10/11 67/13/11 64/34/11
f 67/13/11 63/10/11 66/12/11
f 30/13/19 25/10/19 29/12/19
f 25/13/19 30/10/19 19/12/19
f 45/13/8 30/10/8 29/12/8
f 30/13/8 45/10/8 46/30/8
f 41/1/20 25/1/20 19/52/20
f 25/1/20 41/1/20 42/53/20
f 41/1/7 45/1/7 42/54/7
f 45/1/7 41/1/7 46/55/7
f 45/32/9 25/1/9 42/1/9
f 25/1/9 45/32/9 29/1/9
f 30/10/11 41/13/11 19/34/11
f 41/13/11 30/10/11 46/12/11

usemtl color9

f 71/1/21 70/56/22 69/1/21
f 74/1/24 73/57/23 72/1/23
f 72/1/23 76/58/25 75/1/25
f 75/1/25 70/56/22 77/1/22
f 70/56/22 71/1/21 77/1/22
f 70/56/22 75/1/25 76/58/25
f 76/58/25 72/1/23 73/57/23
f 73/57/23 74/1/24 78/1/24
f 81/12/7 80/60/7 79/59/7
f 80/12/7 81/60/7 82/59/7
f 85/12/6 84/60/5 83/59/6
f 84/12/5 85/60/6 86/59/5
f 80/12/8 78/60/8 74/59/8
f 78/12/8 80/60/8 82/59/8
f 80/12/9 87/60/9 79/59/9
f 87/12/9 80/60/9 88/59/9
f 88/12/9 80/60/9 89/59/9
f 89/12/9 80/60/9 90/59/9
f 90/12/9 80/60/9 84/59/9
f 84/12/9 80/60/9 83/59/9
f 83/12/9 80/60/9 91/59/9
f 91/12/9 80/60/9 92/59/9
f 92/12/9 80/60/9 71/59/9
f 71/12/9 80/60/9 77/59/9
f 77/12/9 80/60/9 75/59/9
f 75/12/9 80/60/9 72/59/9
f 72/12/9 80/60/9 74/59/9
f 81/12/20 87/60/20 93/59/20
f 87/12/20 81/60/20 79/59/20
f 95/12/3 90/60/4 94/59/4
f 90/12/4 95/60/3 89/59/3
f 86/12/5 90/60/4 84/59/5
f 90/12/4 86/60/5 94/59/4
f 96/12/19 83/60/6 91/59/19
f 83/12/6 96/60/19 85/59/6
f 93/12/27 88/60/26 97/59/26
f 88/12/26 93/60/27 87/59/27
f 97/12/26 89/60/3 95/59/3
f 89/12/3 97/60/26 88/59/26
f 98/12/28 91/60/19 92/59/28
f 91/12/19 98/60/28 96/59/19
f 69/12/21 92/60/28 71/59/21
f 92/12/28 69/60/21 98/59/28
f 93/61/11 82/12/11 81/13/11
f 82/12/11 93/61/11 97/62/11
f 82/12/11 97/62/11 95/63/11
f 82/12/11 95/63/11 94/64/11
f 82/12/11 94/64/11 86/65/11
f 82/12/11 86/65/11 85/66/11
f 82/12/11 85/66/11 96/67/11
f 82/12/11 96/67/11 98/68/11
f 82/12/11 98/68/11 69/69/11
f 82/12/11 69/69/11 70/70/11
f 82/12/11 70/70/11 76/71/11
f 82/12/11 76/71/11 73/60/11
f 82/12/11 73/60/11 78/59/11
f 101/73/19 100/10/19 99/72/19
f 100/73/19 101/10/19 102/72/19
f 104/73/9 100/10/9 103/72/9
f 100/73/9 104/10/9 99/72/9
f 99/73/9 104/10/9 105/72/9
f 99/73/9 105/10/9 106/72/9
f 99/73/9 106/10/9 107/72/9
f 99/73/9 107/10/9 108/72/9
f 99/73/9 108/10/9 109/72/9
f 99/73/9 109/10/9 110/72/9
f 99/73/9 110/10/9 111/72/9
f 99/73/9 111/10/9 112/72/9
f 99/73/9 112/10/9 113/72/9
f 99/73/9 113/10/9 114/72/9
f 99/73/9 114/10/9 115/72/9
f 114/73/30 116/10/29 115/72/29
f 116/73/29 114/10/30 117/72/30
f 113/73/31 117/10/30 114/72/30
f 117/73/30 113/10/31 118/72/31
f 112/73/32 118/10/31 113/72/31
f 118/73/31 112/10/32 119/72/32
f 120/73/33 112/10/32 111/72/33
f 112/73/32 120/10/33 119/72/32
f 121/73/34 111/10/33 110/72/34
f 111/73/33 121/10/34 120/72/33
f 122/73/7 110/10/34 109/72/7
f 110/73/34 122/10/7 121/72/34
f 123/73/15 109/10/7 108/72/15
f 109/73/7 123/10/15 122/72/7
f 124/73/14 108/10/15 107/72/14
f 108/73/15 124/10/14 123/72/15
f 125/73/13 107/10/14 106/72/13
f 107/73/14 125/10/13 124/72/14
f 125/73/13 105/10/12 126/72/12
f 105/73/12 125/10/13 106/72/13
f 126/73/12 104/10/18 127/72/18
f 104/73/18 126/10/12 105/72/12
f 127/73/18 103/10/17 128/72/17
f 103/73/17 127/10/18 104/72/18
f 128/1/20 100/1/20 102/74/20
f 100/1/20 128/1/20 103/75/20
f 115/1/8 101/1/8 99/76/8
f 101/1/8 115/1/8 116/77/8
f 102/34/11 127/79/11 128/78/11
f 127/79/11 102/34/11 101/10/11
f 127/79/11 101/10/11 126/80/11
f 126/80/11 101/10/11 125/81/11
f 125/81/11 101/10/11 124/82/11
f 124/82/11 101/10/11 123/83/11
f 123/83/11 101/10/11 122/84/11
f 122/84/11 101/10/11 121/85/11
f 121/85/11 101/10/11 120/86/11
f 120/86/11 101/10/11 119/87/11
f 119/87/11 101/10/11 118/88/11
f 118/88/11 101/10/11 117/73/11
f 117/73/11 101/10/11 116/72/11
f 82/13/19 79/10/19 80/12/19
f 79/13/19 82/10/19 81/12/19
f 99/76/8 82/10/8 80/12/8
f 82/13/8 99/76/8 101/12/8
f 102/74/20 79/1/20 81/12/20
f 79/1/20 102/74/20 100/1/20
f 102/1/7 99/1/7 100/89/7
f 99/1/7 102/1/7 101/90/7
f 99/1/9 79/1/9 100/10/9
f 79/1/9 99/1/9 80/12/9
f 82/10/11 102/13/11 81/34/11
f 102/13/11 82/10/11 101/12/11
f 64/13/19 129/10/19 62/12/19
f 129/13/19 64/10/19 130/12/19
f 68/13/8 64/10/8 62/12/8
f 64/13/8 68/10/8 67/12/8
f 131/1/20 129/1/20 130/91/20
f 129/1/20 131/1/20 132/92/20
f 131/1/7 68/48/7 132/93/7
f 68/48/7 131/1/7 67/1/7
f 68/50/9 129/1/9 132/94/9
f 129/1/9 68/50/9 62/1/9
f 64/10/11 131/13/11 130/34/11
f 131/13/11 64/10/11 67/12/11
f 135/13/19 134/10/19 133/12/19
f 134/13/19 135/10/19 136/12/19
f 137/13/8 135/10/8 133/12/8
f 135/13/8 137/10/8 138/12/8
f 139/1/20 134/1/20 136/95/20
f 134/1/20 139/1/20 140/96/20
f 139/1/7 137/1/7 140/97/7
f 137/1/7 139/1/7 138/98/7
f 137/1/9 134/1/9 140/99/9
f 134/1/9 137/1/9 133/100/9
f 135/10/11 139/13/11 136/34/11
f 139/13/11 135/10/11 138/12/11
f 143/13/19 142/10/19 141/12/19
f 142/13/19 143/10/19 144/12/19
f 145/13/8 143/10/8 141/12/8
f 143/13/8 145/10/8 146/12/8
f 136/95/20 142/1/20 144/101/20
f 142/1/20 136/95/20 134/1/20
f 136/1/7 145/1/7 134/102/7
f 145/1/7 136/1/7 146/103/7
f 145/1/9 142/1/9 134/1/9
f 142/1/9 145/1/9 141/104/9
f 143/10/11 136/13/11 144/34/11
f 136/13/11 143/10/11 146/12/11
f 149/13/19 148/10/19 147/12/19
f 148/13/19 149/10/19 150/12/19
f 151/13/8 149/10/8 147/12/8
f 149/13/8 151/10/8 152/12/8
f 153/1/20 148/1/20 150/105/20
f 148/1/20 153/1/20 154/106/20
f 153/1/7 151/1/7 154/107/7
f 151/1/7 153/1/7 152/108/7
f 151/1/9 148/1/9 154/109/9
f 148/1/9 151/1/9 147/110/9
f 149/10/11 153/13/11 150/34/11
f 153/13/11 149/10/11 152/12/11
f 156/13/19 15/10/19 155/12/19
f 15/13/19 156/10/19 16/12/19
f 142/13/8 156/10/8 155/12/8
f 156/13/8 142/10/8 144/12/8
f 14/1/20 15/1/20 16/111/20
f 15/1/20 14/1/20 13/112/20
f 14/1/7 142/1/7 13/7/7
f 142/1/7 14/1/7 144/113/7
f 142/1/9 15/1/9 13/1/9
f 15/1/9 142/1/9 155/114/9
f 156/10/11 14/13/11 16/34/11
f 14/13/11 156/10/11 144/12/11
f 159/13/19 158/10/19 157/12/19
f 158/13/19 159/10/19 160/12/19
f 161/13/8 159/10/8 157/12/8
f 159/13/8 161/10/8 162/12/8
f 163/1/20 158/1/20 160/115/20
f 158/1/20 163/1/20 164/116/20
f 163/1/7 161/1/7 164/117/7
f 161/1/7 163/1/7 162/118/7
f 161/1/9 158/1/9 164/119/9
f 158/1/9 161/1/9 157/120/9
f 159/10/11 163/13/11 160/34/11
f 163/13/11 159/10/11 162/12/11
f 167/13/19 166/10/19 165/12/19
f 166/13/19 167/10/19 168/12/19
f 169/13/8 167/10/8 165/12/8
f 167/13/8 169/10/8 170/12/8
f 171/1/20 166/1/20 168/121/20
f 166/1/20 171/1/20 172/122/20
f 171/1/7 169/1/7 172/123/7
f 169/1/7 171/1/7 170/124/7
f 169/1/9 166/1/9 172/125/9
f 166/1/9 169/1/9 165/126/9
f 167/10/11 171/13/11 168/34/11
f 171/13/11 167/10/11 170/12/11
f 153/13/19 59/10/19 154/12/19
f 59/13/19 153/10/19 60/12/19
f 173/13/8 153/10/8 154/12/8
f 153/13/8 173/10/8 174/12/8
f 54/1/20 59/1/20 60/127/20
f 59/1/20 54/1/20 56/128/20
f 54/1/7 173/1/7 56/129/7
f 173/1/7 54/1/7 174/130/7
f 173/1/9 59/45/9 56/1/9
f 59/45/9 173/1/9 154/109/9
f 153/10/11 54/13/11 60/34/11
f 54/13/11 153/10/11 174/12/11
f 176/13/19 164/10/19 175/12/19
f 164/13/19 176/10/19 163/12/19
f 177/13/8 176/10/8 175/12/8
f 176/13/8 177/10/8 178/12/8
f 168/121/20 164/116/20 163/1/20
f 164/116/20 168/121/20 166/1/20
f 168/1/7 177/1/7 166/131/7
f 177/1/7 168/1/7 178/132/7
f 177/1/9 164/119/9 166/1/9
f 164/119/9 177/1/9 175/133/9
f 176/10/11 168/13/11 163/34/11
f 168/13/11 176/10/11 178/12/11

usemtl color1

f 181/13/19 180/10/19 179/12/19
f 180/13/19 181/10/19 182/12/19
f 183/13/8 181/10/8 179/12/8
f 181/13/8 183/10/8 184/12/8
f 185/1/20 180/1/20 182/134/20
f 180/1/20 185/1/20 186/135/20
f 185/1/7 183/1/7 186/136/7
f 183/1/7 185/1/7 184/137/7
f 183/1/9 180/1/9 186/138/9
f 180/1/9 183/1/9 179/139/9
f 181/10/11 185/13/11 182/34/11
f 185/13/11 181/10/11 184/12/11
f 181/13/19 187/10/19 179/12/19
f 187/13/19 181/10/19 188/12/19
f 189/13/8 181/10/8 179/12/8
f 181/13/8 189/10/8 190/12/8
f 191/1/20 187/1/20 188/140/20
f 187/1/20 191/1/20 192/141/20
f 191/1/7 189/1/7 192/142/7
f 189/1/7 191/1/7 190/143/7
f 189/1/9 187/1/9 192/144/9
f 187/1/9 189/1/9 179/139/9
f 181/10/11 191/13/11 188/34/11
f 191/13/11 181/10/11 190/12/11
f 195/13/19 194/10/19 193/12/19
f 194/13/19 195/10/19 196/12/19
f 197/13/8 195/10/8 193/12/8
f 195/13/8 197/10/8 198/12/8
f 199/1/20 194/1/20 196/145/20
f 194/1/20 199/1/20 200/146/20
f 199/1/7 197/1/7 200/147/7
f 197/1/7 199/1/7 198/148/7
f 197/1/9 194/1/9 200/149/9
f 194/1/9 197/1/9 193/150/9
f 195/10/11 199/13/11 196/34/11
f 199/13/11 195/10/11 198/12/11
f 138/13/19 140/10/19 137/12/19
f 140/13/19 138/10/19 139/12/19
f 201/13/8 138/10/8 137/12/8
f 138/13/8 201/10/8 202/12/8
f 150/105/20 140/96/20 139/1/20
f 140/96/20 150/105/20 148/1/20
f 150/1/7 201/1/7 148/151/7
f 201/1/7 150/1/7 202/152/7
f 201/1/9 140/99/9 148/1/9
f 140/99/9 201/1/9 137/1/9
f 138/10/11 150/13/11 139/34/11
f 150/13/11 138/10/11 202/12/11
f 162/13/19 175/10/19 161/12/19
f 175/13/19 162/10/19 176/12/19
f 165/13/8 162/10/8 161/12/8
f 162/13/8 165/10/8 167/12/8
f 178/1/20 175/1/20 176/153/20
f 175/1/20 178/1/20 177/154/20
f 178/132/7 165/1/7 177/1/7
f 165/1/7 178/132/7 167/155/7
f 165/126/9 175/133/9 177/1/9
f 175/133/9 165/126/9 161/1/9
f 162/10/11 178/13/11 176/34/11
f 178/13/11 162/10/11 167/12/11

