# Created by Kenney (www.kenney.nl)

mtllib bottle-potion-atlas.mtl

v 3.258819 -5.965926 2
v 3.258819 -5.965926 -2
v 3 -6 2
v 3.5 -5.866025 2
v 3.5 -5.866025 -2
v 3.707107 -5.707107 2
v 3.707107 -5.707107 -2
v 3.866025 -5.5 2
v 3 -6 -2
v 3.965926 -5.258819 -2
v 3.866025 -5.5 -2
v 3.965926 -5.258819 2
v 3 -5 -2
v 3 -5 2
v 4 -5 -2
v 4 -5 2
v 2.258819 -6.965926 2
v 2.258819 -6.965926 -2
v 2 -7 2
v 2.5 -6.866025 2
v 2.5 -6.866025 -2
v 2.707107 -6.707107 2
v 2.707107 -6.707107 -2
v 2.866025 -6.5 2
v 2 -7 -2
v 2.965926 -6.258819 -2
v 2.866025 -6.5 -2
v 2.965926 -6.258819 2
v 2 -6 -2
v 2 -6 2
v 1.933013 4.75 1.5
v 1.853553 4.853553 1.5
v 1.933013 4.75 -1.5
v 1.62941 4.982963 -1.5
v 1.62941 4.982963 1.5
v 1.5 5 -1.5
v 1.75 4.933013 -1.5
v 1.75 4.933013 1.5
v 1.853553 4.853553 -1.5
v 1.5 5 1.5
v 1 4 -1.5
v 1 5 -1.5
v 1 4 1.5
v 1 5 1.5
v 1.982963 4.370591 -1.5
v 1.933013 4.25 -1.5
v 1.982963 4.370591 1.5
v 1.933013 4.25 1.5
v 1.5 4 -1.5
v 1.62941 4.017037 -1.5
v 1.75 4.066988 -1.5
v 1.853553 4.146447 -1.5
v 2 4.5 -1.5
v 1.982963 4.629409 -1.5
v 1.5 4 1.5
v 1.853553 4.146447 1.5
v 1.75 4.066988 1.5
v 2 4.5 1.5
v 1.62941 4.017037 1.5
v 1.982963 4.629409 1.5
v -1 5 -1.5
v -1 4 -1.5
v -1 5 1.5
v -1 4 1.5
v -1.5 4 -1.5
v -1.62941 4.017037 -1.5
v -1.75 4.066987 -1.5
v -1.853553 4.146447 -1.5
v -1.933013 4.25 -1.5
v -1.982963 4.370591 -1.5
v -2 4.5 -1.5
v -1.982963 4.629409 -1.5
v -1.933013 4.75 -1.5
v -1.853553 4.853553 -1.5
v -1.75 4.933013 -1.5
v -1.62941 4.982963 -1.5
v -1.5 5 -1.5
v -1.5 5 1.5
v -1.62941 4.982963 1.5
v -1.75 4.933013 1.5
v -1.853553 4.853553 1.5
v -1.933013 4.75 1.5
v -1.982963 4.629409 1.5
v -2 4.5 1.5
v -1.982963 4.370591 1.5
v -1.933013 4.25 1.5
v -1.853553 4.146447 1.5
v -1.75 4.066987 1.5
v -1.62941 4.017037 1.5
v -1.5 4 1.5
v -2.5 -6.866025 2
v -2.5 -6.866025 -2
v -2.707107 -6.707107 2
v -2.707107 -6.707107 -2
v -2.866025 -6.5 -2
v -2.965926 -6.258819 -2
v -2.866025 -6.5 2
v -3 -6 2
v -2.965926 -6.258819 2
v -3 -6 -2
v -2 -7 2
v -2 -7 -2
v -2.258819 -6.965926 2
v -2.258819 -6.965926 -2
v -2 -6 -2
v -2 -6 2
v -3.5 -5.866025 2
v -3.5 -5.866025 -2
v -3.707107 -5.707107 2
v -3.707107 -5.707107 -2
v -3.866025 -5.5 -2
v -3.965926 -5.258819 -2
v -3.866025 -5.5 2
v -4 -5 2
v -3.965926 -5.258819 2
v -4 -5 -2
v -3.258819 -5.965926 2
v -3.258819 -5.965926 -2
v -3 -5 -2
v -3 -5 2
v 1 7 -1
v 1 5 -1
v 1 7 1
v 1 5 1
v -1 7 -1
v -1 7 1
v -1 5 1
v -1 5 -1
v 1 6 -1
v 1 6 1
v 0 7 -1
v 0 7 1
v 0 6 1
v 0 6 -1
v 1 4 -1
v 1 3 -1
v 1 4 1
v 1 3 1
v -1 4 -1
v -1 4 1
v -1 3 1
v -1 3 -1
v 1 1 -1
v 1 1 1
v -1 1 1
v -1 1 -1
v 1 1 -1.5
v 1 0 -1.5
v 1 1 1.5
v 1 0 1.5
v -1 1 -1.5
v -1 1 1.5
v -1 0 1.5
v -1 0 -1.5
v 2 0 -2
v 2 -2 -2
v 2 0 2
v 2 -2 2
v -1 0 -2
v -1 0 2
v -1 -2 2
v -1 -2 -2
v -2 0 -2
v -2 0 2
v -2 -2 2
v -2 -2 -2
v 3 -1 -2
v 3 -2 -2
v 3 -1 2
v 3 -2 2
v 2 -1 -2
v 2 -1 2
v -2 -1 -2
v -2 -1 2
v -3 -1 -2
v -3 -1 2
v -3 -2 2
v -3 -2 -2
v 4 -2 -2
v 4 -2 2
v 3 -2 -3
v 3 -6 -3
v 3 -2 3
v 3 -6 3
v -1 -2 -3
v -1 -2 3
v -1 -6 3
v -1 -6 -3
v -1 -3 -3
v -1 -3 3
v -2 -2 -3
v -2 -2 3
v -2 -3 3
v -2 -3 -3
v -2 -6 -3
v -2 -6 3
v -3 -2 -3
v -3 -2 3
v -3 -6 3
v -3 -6 -3
v -4 -2 -2
v -4 -2 2

vn 0.2588191 -0.9659259 0
vn 0.1305262 -0.9914449 0
vn 0.5 -0.8660254 0
vn 0.7071068 -0.7071068 0
vn 0.8660254 -0.5 0
vn 0.9659259 -0.2588191 0
vn -1 0 0
vn 0 1 0
vn 0 0 -1
vn 0.9914449 -0.1305262 0
vn 0 0 1
vn 0.8660254 0.5 0
vn 0.7071068 0.7071068 0
vn 0.2588191 0.9659259 0
vn 0.1305262 0.9914449 0
vn 0.5 0.8660254 0
vn 0 -1 0
vn 1 0 0
vn 0.2588191 -0.9659258 0
vn 0.1305262 -0.9914449 0
vn 0.9659258 0.2588191 0
vn -0.1305262 0.9914449 0
vn -0.2588191 0.9659259 0
vn -0.5 0.8660254 0
vn -0.7071068 0.7071068 0
vn -0.8660254 0.5 0
vn -0.9659259 0.2588191 0
vn -0.9659259 -0.2588191 0
vn -0.8660254 -0.5 0
vn -0.7071068 -0.7071068 0
vn -0.5 -0.8660254 0
vn -0.2588191 -0.9659259 0
vn -0.1305262 -0.9914449 0
vn -0.9914449 -0.1305262 0

vt 0.0625 0.1875
vt 0.1875 0.1875
vt 0.1875 0.0625

usemtl bottle-potion-atlas

f 3/1/2 2/1/1 1/1/1
f 1/1/1 5/1/3 4/1/3
f 4/1/3 7/1/4 6/1/4
f 7/1/4 8/1/5 6/1/4
f 7/1/4 4/1/3 5/1/3
f 5/1/3 1/1/1 2/1/1
f 2/1/1 3/1/2 9/1/2
f 12/1/6 11/1/5 10/1/6
f 3/1/7 13/1/7 9/1/7
f 13/1/7 3/1/7 14/1/7
f 13/1/8 16/1/8 15/1/8
f 16/1/8 13/1/8 14/1/8
f 13/1/9 2/1/9 9/1/9
f 2/1/9 13/1/9 5/1/9
f 5/1/9 13/1/9 7/1/9
f 7/1/9 13/1/9 11/1/9
f 11/1/9 13/1/9 10/1/9
f 10/1/9 13/1/9 15/1/9
f 16/1/10 10/1/6 15/1/10
f 10/1/6 16/1/10 12/1/6
f 11/1/5 12/1/6 8/1/5
f 8/1/5 7/1/4 11/1/5
f 1/1/11 14/1/11 3/1/11
f 14/1/11 1/1/11 4/1/11
f 14/1/11 4/1/11 6/1/11
f 14/1/11 6/1/11 8/1/11
f 14/1/11 8/1/11 12/1/11
f 14/1/11 12/1/11 16/1/11
f 19/1/2 18/1/1 17/1/1
f 17/1/1 21/1/3 20/1/3
f 20/1/3 23/1/4 22/1/4
f 23/1/4 24/1/5 22/1/4
f 23/1/4 20/1/3 21/1/3
f 21/1/3 17/1/1 18/1/1
f 18/1/1 19/1/2 25/1/2
f 28/1/6 27/1/5 26/1/6
f 19/1/7 29/1/7 25/1/7
f 29/1/7 19/1/7 30/1/7
f 29/1/8 3/1/8 9/1/8
f 3/1/8 29/1/8 30/1/8
f 29/1/9 18/1/9 25/1/9
f 18/1/9 29/1/9 21/1/9
f 21/1/9 29/1/9 23/1/9
f 23/1/9 29/1/9 27/1/9
f 27/1/9 29/1/9 26/1/9
f 26/1/9 29/1/9 9/1/9
f 3/1/10 26/1/6 9/1/10
f 26/1/6 3/1/10 28/1/6
f 27/1/5 28/1/6 24/1/5
f 24/1/5 23/1/4 27/1/5
f 17/1/11 30/1/11 19/1/11
f 30/1/11 17/1/11 20/1/11
f 30/1/11 20/1/11 22/1/11
f 30/1/11 22/1/11 24/1/11
f 30/1/11 24/1/11 28/1/11
f 30/1/11 28/1/11 3/1/11
f 33/2/12 32/2/13 31/2/12
f 36/2/15 35/2/14 34/2/14
f 34/2/14 38/2/16 37/2/16
f 37/2/16 32/2/13 39/2/13
f 32/2/13 33/2/12 39/2/13
f 32/2/13 37/2/16 38/2/16
f 38/2/16 34/2/14 35/2/14
f 35/2/14 36/2/15 40/2/15
f 43/2/7 42/2/7 41/2/7
f 42/2/7 43/2/7 44/2/7
f 47/2/6 46/2/5 45/2/6
f 46/2/5 47/2/6 48/2/5
f 42/2/8 40/2/8 36/2/8
f 40/2/8 42/2/8 44/2/8
f 42/2/9 49/2/9 41/2/9
f 49/2/9 42/2/9 50/2/9
f 50/2/9 42/2/9 51/2/9
f 51/2/9 42/2/9 52/2/9
f 52/2/9 42/2/9 46/2/9
f 46/2/9 42/2/9 45/2/9
f 45/2/9 42/2/9 53/2/9
f 53/2/9 42/2/9 54/2/9
f 54/2/9 42/2/9 33/2/9
f 33/2/9 42/2/9 39/2/9
f 39/2/9 42/2/9 37/2/9
f 37/2/9 42/2/9 34/2/9
f 34/2/9 42/2/9 36/2/9
f 43/2/17 49/2/17 55/2/17
f 49/2/17 43/2/17 41/2/17
f 57/2/3 52/2/4 56/2/4
f 52/2/4 57/2/3 51/2/3
f 48/2/5 52/2/4 46/2/5
f 52/2/4 48/2/5 56/2/4
f 58/2/18 45/2/6 53/2/18
f 45/2/6 58/2/18 47/2/6
f 55/2/20 50/2/19 59/2/19
f 50/2/19 55/2/20 49/2/20
f 59/2/19 51/2/3 57/2/3
f 51/2/3 59/2/19 50/2/19
f 60/2/21 53/2/18 54/2/21
f 53/2/18 60/2/21 58/2/18
f 31/2/12 54/2/21 33/2/12
f 54/2/21 31/2/12 60/2/21
f 55/2/11 44/2/11 43/2/11
f 44/2/11 55/2/11 59/2/11
f 44/2/11 59/2/11 57/2/11
f 44/2/11 57/2/11 56/2/11
f 44/2/11 56/2/11 48/2/11
f 44/2/11 48/2/11 47/2/11
f 44/2/11 47/2/11 58/2/11
f 44/2/11 58/2/11 60/2/11
f 44/2/11 60/2/11 31/2/11
f 44/2/11 31/2/11 32/2/11
f 44/2/11 32/2/11 38/2/11
f 44/2/11 38/2/11 35/2/11
f 44/2/11 35/2/11 40/2/11
f 63/2/18 62/2/18 61/2/18
f 62/2/18 63/2/18 64/2/18
f 66/2/9 62/2/9 65/2/9
f 62/2/9 66/2/9 61/2/9
f 61/2/9 66/2/9 67/2/9
f 61/2/9 67/2/9 68/2/9
f 61/2/9 68/2/9 69/2/9
f 61/2/9 69/2/9 70/2/9
f 61/2/9 70/2/9 71/2/9
f 61/2/9 71/2/9 72/2/9
f 61/2/9 72/2/9 73/2/9
f 61/2/9 73/2/9 74/2/9
f 61/2/9 74/2/9 75/2/9
f 61/2/9 75/2/9 76/2/9
f 61/2/9 76/2/9 77/2/9
f 76/2/23 78/2/22 77/2/22
f 78/2/22 76/2/23 79/2/23
f 75/2/24 79/2/23 76/2/23
f 79/2/23 75/2/24 80/2/24
f 74/2/25 80/2/24 75/2/24
f 80/2/24 74/2/25 81/2/25
f 82/2/26 74/2/25 73/2/26
f 74/2/25 82/2/26 81/2/25
f 83/2/27 73/2/26 72/2/27
f 73/2/26 83/2/27 82/2/26
f 84/2/7 72/2/27 71/2/7
f 72/2/27 84/2/7 83/2/27
f 85/2/28 71/2/7 70/2/28
f 71/2/7 85/2/28 84/2/7
f 86/2/29 70/2/28 69/2/29
f 70/2/28 86/2/29 85/2/28
f 87/2/30 69/2/29 68/2/30
f 69/2/29 87/2/30 86/2/29
f 87/2/30 67/2/31 88/2/31
f 67/2/31 87/2/30 68/2/30
f 88/2/31 66/2/32 89/2/32
f 66/2/32 88/2/31 67/2/31
f 89/2/32 65/2/33 90/2/33
f 65/2/33 89/2/32 66/2/32
f 90/2/17 62/2/17 64/2/17
f 62/2/17 90/2/17 65/2/17
f 77/2/8 63/2/8 61/2/8
f 63/2/8 77/2/8 78/2/8
f 64/2/11 89/2/11 90/2/11
f 89/2/11 64/2/11 63/2/11
f 89/2/11 63/2/11 88/2/11
f 88/2/11 63/2/11 87/2/11
f 87/2/11 63/2/11 86/2/11
f 86/2/11 63/2/11 85/2/11
f 85/2/11 63/2/11 84/2/11
f 84/2/11 63/2/11 83/2/11
f 83/2/11 63/2/11 82/2/11
f 82/2/11 63/2/11 81/2/11
f 81/2/11 63/2/11 80/2/11
f 80/2/11 63/2/11 79/2/11
f 79/2/11 63/2/11 78/2/11
f 93/1/30 92/1/31 91/1/31
f 92/1/31 93/1/30 94/1/30
f 97/1/29 96/1/28 95/1/29
f 100/1/34 99/1/28 98/1/34
f 103/1/32 102/1/33 101/1/33
f 102/1/33 103/1/32 104/1/32
f 100/1/8 106/1/8 105/1/8
f 106/1/8 100/1/8 98/1/8
f 106/1/18 102/1/18 105/1/18
f 102/1/18 106/1/18 101/1/18
f 104/1/9 105/1/9 102/1/9
f 105/1/9 104/1/9 92/1/9
f 105/1/9 92/1/9 94/1/9
f 105/1/9 94/1/9 95/1/9
f 105/1/9 95/1/9 96/1/9
f 105/1/9 96/1/9 100/1/9
f 91/1/31 104/1/32 103/1/32
f 104/1/32 91/1/31 92/1/31
f 93/1/30 95/1/29 94/1/30
f 95/1/29 93/1/30 97/1/29
f 96/1/28 97/1/29 99/1/28
f 99/1/28 100/1/34 96/1/28
f 106/1/11 103/1/11 101/1/11
f 103/1/11 106/1/11 91/1/11
f 91/1/11 106/1/11 93/1/11
f 93/1/11 106/1/11 97/1/11
f 97/1/11 106/1/11 99/1/11
f 99/1/11 106/1/11 98/1/11
f 109/1/30 108/1/31 107/1/31
f 108/1/31 109/1/30 110/1/30
f 113/1/29 112/1/28 111/1/29
f 116/1/34 115/1/28 114/1/34
f 117/1/32 100/1/33 98/1/33
f 100/1/33 117/1/32 118/1/32
f 116/1/8 120/1/8 119/1/8
f 120/1/8 116/1/8 114/1/8
f 120/1/18 100/1/18 119/1/18
f 100/1/18 120/1/18 98/1/18
f 118/1/9 119/1/9 100/1/9
f 119/1/9 118/1/9 108/1/9
f 119/1/9 108/1/9 110/1/9
f 119/1/9 110/1/9 111/1/9
f 119/1/9 111/1/9 112/1/9
f 119/1/9 112/1/9 116/1/9
f 107/1/31 118/1/32 117/1/32
f 118/1/32 107/1/31 108/1/31
f 109/1/30 111/1/29 110/1/30
f 111/1/29 109/1/30 113/1/29
f 112/1/28 113/1/29 115/1/28
f 115/1/28 116/1/34 112/1/28
f 120/1/11 117/1/11 98/1/11
f 117/1/11 120/1/11 107/1/11
f 107/1/11 120/1/11 109/1/11
f 109/1/11 120/1/11 113/1/11
f 113/1/11 120/1/11 115/1/11
f 115/1/11 120/1/11 114/1/11
f 123/3/18 122/3/18 121/3/18
f 122/3/18 123/3/18 124/3/18
f 125/3/8 123/3/8 121/3/8
f 123/3/8 125/3/8 126/3/8
f 127/3/17 122/3/17 124/3/17
f 122/3/17 127/3/17 128/3/17
f 127/3/7 125/3/7 128/3/7
f 125/3/7 127/3/7 126/3/7
f 125/3/9 122/3/9 128/3/9
f 122/3/9 125/3/9 121/3/9
f 123/3/11 127/3/11 124/3/11
f 127/3/11 123/3/11 126/3/11
f 123/3/18 129/3/18 121/3/18
f 129/3/18 123/3/18 130/3/18
f 131/3/8 123/3/8 121/3/8
f 123/3/8 131/3/8 132/3/8
f 133/3/17 129/3/17 130/3/17
f 129/3/17 133/3/17 134/3/17
f 133/3/7 131/3/7 134/3/7
f 131/3/7 133/3/7 132/3/7
f 131/3/9 129/3/9 134/3/9
f 129/3/9 131/3/9 121/3/9
f 123/3/11 133/3/11 130/3/11
f 133/3/11 123/3/11 132/3/11
f 44/2/18 41/2/18 42/2/18
f 41/2/18 44/2/18 43/2/18
f 61/2/8 44/2/8 42/2/8
f 44/2/8 61/2/8 63/2/8
f 64/2/17 41/2/17 43/2/17
f 41/2/17 64/2/17 62/2/17
f 64/2/7 61/2/7 62/2/7
f 61/2/7 64/2/7 63/2/7
f 61/2/9 41/2/9 62/2/9
f 41/2/9 61/2/9 42/2/9
f 44/2/11 64/2/11 43/2/11
f 64/2/11 44/2/11 63/2/11
f 137/1/18 136/1/18 135/1/18
f 136/1/18 137/1/18 138/1/18
f 139/1/8 137/1/8 135/1/8
f 137/1/8 139/1/8 140/1/8
f 141/1/17 136/1/17 138/1/17
f 136/1/17 141/1/17 142/1/17
f 141/1/7 139/1/7 142/1/7
f 139/1/7 141/1/7 140/1/7
f 139/1/9 136/1/9 142/1/9
f 136/1/9 139/1/9 135/1/9
f 137/1/11 141/1/11 138/1/11
f 141/1/11 137/1/11 140/1/11
f 138/2/18 143/2/18 136/2/18
f 143/2/18 138/2/18 144/2/18
f 142/2/8 138/2/8 136/2/8
f 138/2/8 142/2/8 141/2/8
f 145/2/17 143/2/17 144/2/17
f 143/2/17 145/2/17 146/2/17
f 145/2/7 142/2/7 146/2/7
f 142/2/7 145/2/7 141/2/7
f 142/2/9 143/2/9 146/2/9
f 143/2/9 142/2/9 136/2/9
f 138/2/11 145/2/11 144/2/11
f 145/2/11 138/2/11 141/2/11
f 149/3/18 148/3/18 147/3/18
f 148/3/18 149/3/18 150/3/18
f 151/3/8 149/3/8 147/3/8
f 149/3/8 151/3/8 152/3/8
f 153/3/17 148/3/17 150/3/17
f 148/3/17 153/3/17 154/3/17
f 153/3/7 151/3/7 154/3/7
f 151/3/7 153/3/7 152/3/7
f 151/3/9 148/3/9 154/3/9
f 148/3/9 151/3/9 147/3/9
f 149/3/11 153/3/11 150/3/11
f 153/3/11 149/3/11 152/3/11
f 157/2/18 156/2/18 155/2/18
f 156/2/18 157/2/18 158/2/18
f 159/2/8 157/2/8 155/2/8
f 157/2/8 159/2/8 160/2/8
f 161/2/17 156/2/17 158/2/17
f 156/2/17 161/2/17 162/2/17
f 161/2/7 159/2/7 162/2/7
f 159/2/7 161/2/7 160/2/7
f 159/2/9 156/2/9 162/2/9
f 156/2/9 159/2/9 155/2/9
f 157/2/11 161/2/11 158/2/11
f 161/2/11 157/2/11 160/2/11
f 160/3/18 162/3/18 159/3/18
f 162/3/18 160/3/18 161/3/18
f 163/3/8 160/3/8 159/3/8
f 160/3/8 163/3/8 164/3/8
f 165/3/17 162/3/17 161/3/17
f 162/3/17 165/3/17 166/3/17
f 165/3/7 163/3/7 166/3/7
f 163/3/7 165/3/7 164/3/7
f 163/3/9 162/3/9 166/3/9
f 162/3/9 163/3/9 159/3/9
f 160/3/11 165/3/11 161/3/11
f 165/3/11 160/3/11 164/3/11
f 169/2/18 168/2/18 167/2/18
f 168/2/18 169/2/18 170/2/18
f 171/2/8 169/2/8 167/2/8
f 169/2/8 171/2/8 172/2/8
f 158/2/17 168/2/17 170/2/17
f 168/2/17 158/2/17 156/2/17
f 158/2/7 171/2/7 156/2/7
f 171/2/7 158/2/7 172/2/7
f 171/2/9 168/2/9 156/2/9
f 168/2/9 171/2/9 167/2/9
f 169/2/11 158/2/11 170/2/11
f 158/2/11 169/2/11 172/2/11
f 174/2/18 166/2/18 173/2/18
f 166/2/18 174/2/18 165/2/18
f 175/2/8 174/2/8 173/2/8
f 174/2/8 175/2/8 176/2/8
f 177/2/17 166/2/17 165/2/17
f 166/2/17 177/2/17 178/2/17
f 177/2/7 175/2/7 178/2/7
f 175/2/7 177/2/7 176/2/7
f 175/2/9 166/2/9 178/2/9
f 166/2/9 175/2/9 173/2/9
f 174/2/11 177/2/11 165/2/11
f 177/2/11 174/2/11 176/2/11
f 180/2/18 15/2/18 179/2/18
f 15/2/18 180/2/18 16/2/18
f 168/2/8 180/2/8 179/2/8
f 180/2/8 168/2/8 170/2/8
f 14/2/17 15/2/17 16/2/17
f 15/2/17 14/2/17 13/2/17
f 14/2/7 168/2/7 13/2/7
f 168/2/7 14/2/7 170/2/7
f 168/2/9 15/2/9 13/2/9
f 15/2/9 168/2/9 179/2/9
f 180/2/11 14/2/11 16/2/11
f 14/2/11 180/2/11 170/2/11
f 183/2/18 182/2/18 181/2/18
f 182/2/18 183/2/18 184/2/18
f 185/2/8 183/2/8 181/2/8
f 183/2/8 185/2/8 186/2/8
f 187/2/17 182/2/17 184/2/17
f 182/2/17 187/2/17 188/2/17
f 187/2/7 185/2/7 188/2/7
f 185/2/7 187/2/7 186/2/7
f 185/2/9 182/2/9 188/2/9
f 182/2/9 185/2/9 181/2/9
f 183/2/11 187/2/11 184/2/11
f 187/2/11 183/2/11 186/2/11
f 186/3/18 189/3/18 185/3/18
f 189/3/18 186/3/18 190/3/18
f 191/3/8 186/3/8 185/3/8
f 186/3/8 191/3/8 192/3/8
f 193/3/17 189/3/17 190/3/17
f 189/3/17 193/3/17 194/3/17
f 193/3/7 191/3/7 194/3/7
f 191/3/7 193/3/7 192/3/7
f 191/3/9 189/3/9 194/3/9
f 189/3/9 191/3/9 185/3/9
f 186/3/11 193/3/11 190/3/11
f 193/3/11 186/3/11 192/3/11
f 192/2/18 195/2/18 191/2/18
f 195/2/18 192/2/18 196/2/18
f 197/2/8 192/2/8 191/2/8
f 192/2/8 197/2/8 198/2/8
f 199/2/17 195/2/17 196/2/17
f 195/2/17 199/2/17 200/2/17
f 199/2/7 197/2/7 200/2/7
f 197/2/7 199/2/7 198/2/7
f 197/2/9 195/2/9 200/2/9
f 195/2/9 197/2/9 191/2/9
f 192/2/11 199/2/11 196/2/11
f 199/2/11 192/2/11 198/2/11
f 177/2/18 119/2/18 178/2/18
f 119/2/18 177/2/18 120/2/18
f 201/2/8 177/2/8 178/2/8
f 177/2/8 201/2/8 202/2/8
f 114/2/17 119/2/17 120/2/17
f 119/2/17 114/2/17 116/2/17
f 114/2/7 201/2/7 116/2/7
f 201/2/7 114/2/7 202/2/7
f 201/2/9 119/2/9 116/2/9
f 119/2/9 201/2/9 178/2/9
f 177/2/11 114/2/11 120/2/11
f 114/2/11 177/2/11 202/2/11
f 190/2/18 188/2/18 189/2/18
f 188/2/18 190/2/18 187/2/18
f 194/2/8 190/2/8 189/2/8
f 190/2/8 194/2/8 193/2/8
f 196/2/17 188/2/17 187/2/17
f 188/2/17 196/2/17 195/2/17
f 196/2/7 194/2/7 195/2/7
f 194/2/7 196/2/7 193/2/7
f 194/2/9 188/2/9 195/2/9
f 188/2/9 194/2/9 189/2/9
f 190/2/11 196/2/11 187/2/11
f 196/2/11 190/2/11 193/2/11
f 30/1/18 25/1/18 29/1/18
f 25/1/18 30/1/18 19/1/18
f 105/1/8 30/1/8 29/1/8
f 30/1/8 105/1/8 106/1/8
f 101/1/17 25/1/17 19/1/17
f 25/1/17 101/1/17 102/1/17
f 101/1/7 105/1/7 102/1/7
f 105/1/7 101/1/7 106/1/7
f 105/1/9 25/1/9 102/1/9
f 25/1/9 105/1/9 29/1/9
f 30/1/11 101/1/11 19/1/11
f 101/1/11 30/1/11 106/1/11

